<mxfile host="app.diagrams.net" modified="2023-11-15T08:33:52.829Z" agent="Mozilla/5.0 (Windows NT 10.0; Win64; x64) AppleWebKit/537.36 (KHTML, like Gecko) Chrome/119.0.0.0 Safari/537.36" etag="uUn77qO8JhKU2HTzHOCc" version="22.1.1" type="github">
  <diagram name="ページ1" id="-_GhY7xAdT0t37fWvz35">
    <mxGraphModel dx="791" dy="1132" grid="1" gridSize="10" guides="1" tooltips="1" connect="1" arrows="1" fold="1" page="1" pageScale="1" pageWidth="827" pageHeight="1169" math="0" shadow="0">
      <root>
        <mxCell id="0" />
        <mxCell id="1" parent="0" />
      </root>
    </mxGraphModel>
  </diagram>
</mxfile>
